<?xml version="1.0" encoding="UTF-8"?>
<svg id="Ebene_1" xmlns="http://www.w3.org/2000/svg" version="1.1" viewBox="-0.25 14.75 600.25 166.75">
  <!-- Generator: Adobe Illustrator 30.4.0, SVG Export Plug-In . SVG Version: 2.1.4 Build 226)  -->
  <defs>
    <style>
      .st0 {
        fill: #e60000;
      }
    </style>
  </defs>
  <g>
    <path d="M83.4,25.54h56.3c10.07,0,14.82,3.26,14.82,12.15v7.56c0,5.77-3.85,9.48-10.67,10.67,7.11,1.19,11.11,5.63,11.11,12v8c0,8.29-6.52,12.3-19.41,12.3h-52.15V25.54h0ZM98.51,60.95v16h34.22c5.18,0,7.41-1.03,7.41-5.63v-4.74c0-4.6-2.22-5.63-7.41-5.63h-34.22ZM98.51,35.76v14.82h34.22c4.59,0,6.82-.74,6.82-4.45v-5.93c0-3.7-2.07-4.44-6.82-4.44h-34.22Z"/>
    <polygon points="180.77 25.54 196.03 25.54 196.03 88.21 180.77 88.21 180.77 25.54 180.77 25.54"/>
    <polygon points="223.89 25.54 234.41 25.54 287.59 67.17 287.59 25.54 301.37 25.54 301.37 88.21 290.85 88.21 237.82 45.98 237.82 88.21 223.89 88.21 223.89 25.54 223.89 25.54"/>
    <path d="M329.33,25.54h42.22c24.74,0,37.63,11.7,37.63,31.11,0,21.19-13.93,31.56-41.48,31.56h-38.37V25.54h0ZM364.44,76.5c19.41,0,29.03-4.3,29.03-20.59,0-13.04-7.26-19.11-21.78-19.11h-26.96v39.7h19.71Z"/>
    <polygon points="432.19 25.54 499.46 25.54 499.46 36.65 447.6 36.65 447.6 50.28 477.83 50.28 477.83 61.09 447.6 61.09 447.6 76.5 500.19 76.5 500.19 88.21 432.19 88.21 432.19 25.54 432.19 25.54"/>
    <path d="M522.19,25.54h56.44c10.07,0,14.67,3.41,14.67,12.15v14.81c0,8.59-4.59,12-14.67,12h-8.6l29.78,23.7h-21.92l-26.23-23.7h-14.37v23.7h-15.11V25.54h0ZM537.3,36.35v17.34h34.81c4.6,0,6.97-.89,6.97-5.04v-7.26c0-4.15-2.37-5.04-6.97-5.04h-34.81Z"/>
  </g>
  <g>
    <polygon class="st0" points="28.15 38.96 57.97 56.18 28.15 73.4 28.15 38.96 28.15 38.96"/>
    <polygon class="st0" points="-.01 15.02 29.81 32.23 -.01 49.45 -.01 15.02 -.01 15.02"/>
    <polygon class="st0" points="-.01 62.78 29.81 80 -.01 97.22 -.01 62.78 -.01 62.78"/>
  </g>
  <g>
    <path d="M436.4,180.08v-57.8h7.31v57.8h-7.31Z"/>
    <path d="M456.67,180.08v-42.82h5.99l.62,6.17h.26c2.06-2.06,4.23-3.77,6.52-5.15,2.29-1.38,4.9-2.07,7.84-2.07,4.52,0,7.83,1.42,9.91,4.27,2.08,2.85,3.13,7,3.13,12.47v27.14h-7.22v-26.17c0-4.05-.63-6.97-1.89-8.77-1.26-1.79-3.33-2.69-6.21-2.69-2.17,0-4.13.56-5.86,1.67-1.73,1.12-3.69,2.76-5.86,4.93v31.01h-7.22Z"/>
    <path d="M517.28,181.14c-5.4,0-9.71-1.95-12.91-5.86-3.2-3.91-4.8-9.41-4.8-16.52,0-4.64.87-8.65,2.6-12.03,1.73-3.38,4.01-5.98,6.83-7.8,2.82-1.82,5.87-2.73,9.16-2.73,2.52,0,4.68.43,6.48,1.28,1.79.85,3.63,2.07,5.51,3.66l-.35-7.31v-16.48h7.31v62.73h-5.99l-.62-5.02h-.26c-1.65,1.64-3.58,3.07-5.82,4.27-2.23,1.2-4.61,1.81-7.14,1.81ZM518.87,175.06c2,0,3.88-.5,5.64-1.5,1.76-1,3.52-2.47,5.29-4.41v-22.38c-1.76-1.64-3.5-2.8-5.2-3.48-1.71-.67-3.44-1.01-5.2-1.01-2.29,0-4.36.69-6.21,2.07-1.85,1.38-3.33,3.29-4.45,5.73-1.12,2.44-1.67,5.3-1.67,8.59,0,5.11,1.03,9.12,3.08,12.03,2.05,2.91,4.96,4.36,8.72,4.36Z"/>
    <path d="M552.96,128.45c-1.41,0-2.57-.44-3.48-1.32-.91-.88-1.37-2.03-1.37-3.44s.45-2.56,1.37-3.44c.91-.88,2.07-1.32,3.48-1.32s2.57.44,3.48,1.32c.91.88,1.37,2.03,1.37,3.44s-.46,2.55-1.37,3.44c-.91.88-2.07,1.32-3.48,1.32ZM549.35,180.08v-42.82h7.22v42.82h-7.22Z"/>
    <path d="M578.69,181.14c-2.35,0-4.48-.49-6.39-1.45-1.91-.97-3.42-2.35-4.54-4.14-1.12-1.79-1.67-3.98-1.67-6.56,0-4.82,2.11-8.46,6.34-10.92,4.23-2.47,10.92-4.2,20.09-5.2-.06-1.76-.34-3.46-.84-5.11-.5-1.64-1.4-2.97-2.69-3.96-1.29-1-3.08-1.5-5.37-1.5-2.47,0-4.79.46-6.96,1.37-2.17.91-4.11,1.92-5.81,3.04l-2.82-4.93c1.29-.88,2.82-1.75,4.58-2.6,1.76-.85,3.67-1.56,5.73-2.11,2.05-.56,4.23-.84,6.52-.84,3.46,0,6.3.72,8.5,2.16,2.2,1.44,3.82,3.48,4.85,6.12,1.03,2.64,1.54,5.76,1.54,9.34v26.25h-5.99l-.62-5.11h-.26c-2.06,1.7-4.26,3.16-6.61,4.36-2.35,1.2-4.88,1.81-7.58,1.81ZM580.71,175.15c2.11,0,4.1-.47,5.95-1.41,1.85-.94,3.8-2.32,5.86-4.14v-11.54c-4.82.59-8.62,1.34-11.41,2.25-2.79.91-4.8,2.04-6.04,3.39-1.23,1.35-1.85,2.97-1.85,4.85,0,2.35.73,4.04,2.2,5.07,1.47,1.03,3.23,1.54,5.29,1.54Z"/>
  </g>
</svg>