<?xml version="1.0" encoding="UTF-8"?>
<svg id="Ebene_1" xmlns="http://www.w3.org/2000/svg" version="1.1" viewBox="54.81 359.88 484.78 69.75">
  <!-- Generator: Adobe Illustrator 30.0.0, SVG Export Plug-In . SVG Version: 2.1.1 Build 123)  -->
  <defs>
    <style>
      .st0 {
        fill: #fff;
      }
    </style>
  </defs>
  <path class="st0" d="M123.61,370.23h45.14c8.08,0,11.88,2.61,11.88,9.74v6.06c0,4.63-3.09,7.6-8.55,8.55,5.7.95,8.91,4.51,8.91,9.62v6.42c0,6.65-5.23,9.86-15.56,9.86h-41.81v-50.25h0ZM135.72,398.62v12.83h27.44c4.16,0,5.94-.83,5.94-4.51v-3.8c0-3.68-1.78-4.52-5.94-4.52h-27.44ZM135.72,378.43v11.88h27.44c3.68,0,5.47-.59,5.47-3.57v-4.75c0-2.97-1.66-3.56-5.47-3.56h-27.44Z"/>
  <polygon class="st0" points="201.68 370.23 213.92 370.23 213.92 420.48 201.68 420.48 201.68 370.23 201.68 370.23"/>
  <polygon class="st0" points="236.25 370.23 244.68 370.23 287.33 403.61 287.33 370.23 298.37 370.23 298.37 420.48 289.94 420.48 247.42 386.63 247.42 420.48 236.25 420.48 236.25 370.23 236.25 370.23"/>
  <path class="st0" d="M320.79,370.23h33.85c19.84,0,30.17,9.38,30.17,24.95,0,16.99-11.16,25.3-33.26,25.3h-30.77v-50.25h0ZM348.94,411.1c15.56,0,23.28-3.45,23.28-16.51,0-10.45-5.82-15.32-17.46-15.32h-21.62v31.83h15.8Z"/>
  <polygon class="st0" points="403.26 370.23 457.19 370.23 457.19 379.14 415.62 379.14 415.62 390.07 439.85 390.07 439.85 398.74 415.62 398.74 415.62 411.1 457.78 411.1 457.78 420.48 403.26 420.48 403.26 370.23 403.26 370.23"/>
  <path class="st0" d="M475.42,370.23h45.26c8.08,0,11.76,2.73,11.76,9.74v11.88c0,6.89-3.68,9.62-11.76,9.62h-6.9l23.88,19.01h-17.58l-21.03-19.01h-11.52v19.01h-12.11v-50.25h0ZM487.53,378.91v13.9h27.91c3.69,0,5.59-.71,5.59-4.04v-5.82c0-3.33-1.9-4.04-5.59-4.04h-27.91Z"/>
  <polygon class="st0" points="79.31 381 103.22 394.81 79.31 408.61 79.31 381 79.31 381"/>
  <polygon class="st0" points="56.73 361.8 80.64 375.6 56.73 389.41 56.73 361.8 56.73 361.8"/>
  <polygon class="st0" points="56.73 400.1 80.64 413.9 56.73 427.7 56.73 400.1 56.73 400.1"/>
</svg>