<?xml version="1.0" encoding="UTF-8"?>
<svg id="Ebene_1" xmlns="http://www.w3.org/2000/svg" version="1.1" viewBox="-0.25 10.75 600.50 166.75">
  <!-- Generator: Adobe Illustrator 30.4.0, SVG Export Plug-In . SVG Version: 2.1.4 Build 226)  -->
  <defs>
    <style>
      .st0 {
        fill: #e60000;
      }
    </style>
  </defs>
  <g>
    <g>
      <path d="M83.42,21.49h56.31c10.07,0,14.82,3.26,14.82,12.15v7.56c0,5.78-3.86,9.48-10.67,10.67,7.11,1.19,11.12,5.63,11.12,12v8c0,8.3-6.52,12.3-19.41,12.3h-52.16V21.49h0ZM98.53,56.91v16h34.23c5.19,0,7.41-1.03,7.41-5.63v-4.74c0-4.6-2.22-5.63-7.41-5.63h-34.23ZM98.53,31.72v14.82h34.23c4.59,0,6.82-.74,6.82-4.45v-5.93c0-3.7-2.07-4.44-6.82-4.44h-34.23Z"/>
      <polygon points="180.81 21.49 196.07 21.49 196.07 84.17 180.81 84.17 180.81 21.49 180.81 21.49"/>
      <polygon points="223.93 21.49 234.45 21.49 287.65 63.13 287.65 21.49 301.43 21.49 301.43 84.17 290.91 84.17 237.86 41.94 237.86 84.17 223.93 84.17 223.93 21.49 223.93 21.49"/>
      <path d="M329.39,21.49h42.23c24.75,0,37.64,11.71,37.64,31.12,0,21.19-13.93,31.56-41.49,31.56h-38.38V21.49h0ZM364.51,72.46c19.41,0,29.04-4.3,29.04-20.6,0-13.04-7.26-19.11-21.78-19.11h-26.97v39.71h19.71Z"/>
      <polygon points="432.27 21.49 499.55 21.49 499.55 32.61 447.68 32.61 447.68 46.23 477.92 46.23 477.92 57.05 447.68 57.05 447.68 72.46 500.29 72.46 500.29 84.17 432.27 84.17 432.27 21.49 432.27 21.49"/>
      <path d="M522.29,21.49h56.45c10.08,0,14.67,3.41,14.67,12.15v14.82c0,8.59-4.59,12.01-14.67,12.01h-8.6l29.79,23.71h-21.93l-26.23-23.71h-14.37v23.71h-15.11V21.49h0ZM537.4,32.31v17.34h34.82c4.6,0,6.97-.89,6.97-5.04v-7.26c0-4.15-2.37-5.04-6.97-5.04h-34.82Z"/>
    </g>
    <g>
      <polygon class="st0" points="28.16 34.92 57.98 52.14 28.16 69.36 28.16 34.92 28.16 34.92"/>
      <polygon class="st0" points="-.01 10.97 29.82 28.19 -.01 45.41 -.01 10.97 -.01 10.97"/>
      <polygon class="st0" points="-.01 58.74 29.82 75.96 -.01 93.18 -.01 58.74 -.01 58.74"/>
    </g>
  </g>
  <g>
    <path d="M175.34,176.07v-57.81h18.06c3.94,0,7.43.51,10.49,1.54,3.05,1.03,5.45,2.73,7.18,5.11,1.73,2.38,2.6,5.57,2.6,9.56s-.87,7.08-2.6,9.61c-1.73,2.53-4.13,4.42-7.18,5.68-3.06,1.26-6.55,1.9-10.49,1.9h-10.75v24.41h-7.31ZM182.65,145.66h9.69c4.52,0,7.99-.92,10.4-2.78,2.41-1.85,3.61-4.66,3.61-8.42s-1.2-6.42-3.61-7.97c-2.41-1.56-5.88-2.33-10.4-2.33h-9.69v21.5ZM207.06,176.07l-15.07-26.44,5.73-3.88,17.62,30.31h-8.28Z"/>
    <path d="M239.05,177.12c-3.82,0-7.3-.9-10.44-2.69-3.14-1.79-5.63-4.35-7.45-7.67-1.82-3.32-2.73-7.36-2.73-12.12s.94-8.64,2.82-11.99c1.88-3.35,4.29-5.93,7.23-7.75,2.94-1.82,6.05-2.73,9.34-2.73,3.64,0,6.74.84,9.3,2.51,2.56,1.67,4.48,4.01,5.77,7.01,1.29,3,1.94,6.52,1.94,10.57,0,.76-.02,1.5-.04,2.2-.03.71-.13,1.41-.31,2.12h-30.84v-5.73h24.67c0-4.11-.9-7.27-2.69-9.47-1.79-2.2-4.36-3.3-7.71-3.3-1.94,0-3.85.54-5.73,1.63-1.88,1.09-3.42,2.83-4.63,5.24-1.2,2.41-1.81,5.61-1.81,9.6,0,3.64.63,6.7,1.9,9.17,1.26,2.47,2.98,4.33,5.15,5.6,2.17,1.26,4.55,1.89,7.14,1.89,2.06,0,3.98-.29,5.77-.88,1.79-.59,3.42-1.38,4.89-2.38l2.64,4.76c-1.88,1.29-3.98,2.35-6.3,3.17-2.32.82-4.95,1.23-7.89,1.23Z"/>
    <path d="M263.9,176.07v-57.81h33.31v6.17h-26v19.56h22.03v6.17h-22.03v25.91h-7.31Z"/>
    <path d="M315.63,177.12c-4.52,0-7.83-1.42-9.91-4.27-2.09-2.85-3.13-7-3.13-12.47v-27.14h7.23v26.17c0,4,.63,6.89,1.89,8.68s3.3,2.69,6.12,2.69c2.17,0,4.13-.57,5.86-1.72,1.73-1.15,3.62-2.95,5.68-5.42v-30.4h7.22v42.83h-5.99l-.62-6.7h-.26c-1.94,2.35-4.04,4.23-6.3,5.64s-4.86,2.12-7.8,2.12Z"/>
    <path d="M348.85,176.07v-42.83h5.99l.62,7.75h.26c1.41-2.7,3.17-4.85,5.29-6.43,2.12-1.59,4.41-2.38,6.87-2.38.94,0,1.76.06,2.47.18.71.12,1.41.35,2.12.71l-1.59,6.17c-.65-.18-1.25-.31-1.81-.4-.56-.09-1.28-.13-2.16-.13-1.82,0-3.72.74-5.68,2.2-1.97,1.47-3.69,4.02-5.16,7.67v27.49h-7.23Z"/>
    <path d="M396.17,177.12c-2,0-4.05-.48-6.17-1.45-2.12-.97-4.14-2.3-6.08-4.01h-.26l-.62,4.41h-5.82v-62.74h7.23v17.1l-.18,7.75c1.94-1.7,4.07-3.13,6.39-4.27,2.32-1.15,4.66-1.72,7.01-1.72,3.7,0,6.81.9,9.34,2.69,2.53,1.79,4.44,4.32,5.73,7.58,1.29,3.26,1.94,7.09,1.94,11.5,0,4.88-.87,9.05-2.6,12.51-1.73,3.47-4.01,6.11-6.83,7.93-2.82,1.82-5.85,2.73-9.08,2.73ZM394.93,171.04c2.35,0,4.45-.67,6.3-2.03,1.85-1.35,3.3-3.3,4.36-5.86,1.06-2.55,1.59-5.6,1.59-9.12,0-3.11-.38-5.86-1.15-8.24-.76-2.38-1.97-4.23-3.61-5.55-1.65-1.32-3.82-1.98-6.52-1.98-1.76,0-3.6.48-5.51,1.45-1.91.97-3.89,2.42-5.95,4.36v22.47c1.88,1.65,3.75,2.81,5.6,3.48,1.85.68,3.48,1.01,4.89,1.01Z"/>
    <path d="M427.36,124.43c-1.41,0-2.57-.44-3.48-1.32-.91-.88-1.37-2.03-1.37-3.44s.45-2.56,1.37-3.44c.91-.88,2.07-1.32,3.48-1.32s2.57.44,3.48,1.32c.91.88,1.37,2.03,1.37,3.44s-.46,2.56-1.37,3.44c-.91.88-2.07,1.32-3.48,1.32ZM423.75,176.07v-42.83h7.23v42.83h-7.23Z"/>
    <path d="M454.41,177.12c-3.11,0-6.07-.54-8.86-1.63-2.79-1.09-5.16-2.6-7.09-4.54l3.35-4.23c1.88,1.53,3.83,2.7,5.86,3.52,2.03.82,4.36,1.23,7.01,1.23,2.82,0,4.93-.66,6.34-1.98,1.41-1.32,2.12-2.89,2.12-4.71,0-1.47-.49-2.69-1.45-3.66-.97-.97-2.17-1.79-3.61-2.47-1.44-.67-2.98-1.31-4.63-1.89-2.12-.76-4.14-1.66-6.08-2.69-1.94-1.03-3.51-2.32-4.71-3.88-1.21-1.56-1.81-3.51-1.81-5.86,0-3.47,1.31-6.36,3.92-8.68,2.61-2.32,6.24-3.48,10.88-3.48,2.64,0,5.11.46,7.4,1.37,2.29.91,4.26,2.07,5.9,3.48l-3.35,4.14c-1.53-1.06-3.08-1.88-4.67-2.47-1.59-.59-3.35-.88-5.29-.88-2.7,0-4.69.62-5.95,1.85-1.26,1.23-1.89,2.67-1.89,4.32,0,1.29.38,2.37,1.15,3.22.76.85,1.83,1.6,3.22,2.25,1.38.65,2.95,1.26,4.71,1.85,2.23.82,4.36,1.75,6.39,2.78,2.03,1.03,3.67,2.35,4.93,3.97,1.26,1.62,1.89,3.72,1.89,6.3,0,2.35-.6,4.48-1.81,6.39-1.21,1.91-2.97,3.45-5.29,4.63-2.32,1.17-5.18,1.76-8.59,1.76Z"/>
    <path d="M477.94,176.07v-62.74h7.23v17.1l-.26,8.81c2.06-1.94,4.21-3.6,6.48-4.98,2.26-1.38,4.86-2.07,7.8-2.07,4.52,0,7.83,1.43,9.91,4.27,2.08,2.85,3.13,7.01,3.13,12.47v27.14h-7.23v-26.17c0-4.05-.63-6.98-1.89-8.77-1.26-1.79-3.33-2.69-6.21-2.69-2.17,0-4.13.56-5.86,1.67-1.73,1.12-3.69,2.76-5.86,4.93v31.02h-7.23Z"/>
    <path d="M541.04,177.12c-3.82,0-7.3-.9-10.44-2.69-3.14-1.79-5.63-4.35-7.45-7.67-1.82-3.32-2.73-7.36-2.73-12.12s.94-8.64,2.82-11.99c1.88-3.35,4.29-5.93,7.23-7.75,2.94-1.82,6.05-2.73,9.34-2.73,3.64,0,6.74.84,9.3,2.51,2.55,1.67,4.48,4.01,5.77,7.01,1.29,3,1.94,6.52,1.94,10.57,0,.76-.01,1.5-.04,2.2-.03.71-.13,1.41-.31,2.12h-30.84v-5.73h24.67c0-4.11-.9-7.27-2.69-9.47-1.79-2.2-4.36-3.3-7.71-3.3-1.94,0-3.85.54-5.73,1.63-1.88,1.09-3.42,2.83-4.63,5.24-1.21,2.41-1.81,5.61-1.81,9.6,0,3.64.63,6.7,1.89,9.17,1.26,2.47,2.98,4.33,5.16,5.6,2.17,1.26,4.55,1.89,7.14,1.89,2.06,0,3.98-.29,5.77-.88,1.79-.59,3.42-1.38,4.89-2.38l2.64,4.76c-1.88,1.29-3.98,2.35-6.3,3.17-2.32.82-4.95,1.23-7.89,1.23Z"/>
    <path d="M579.81,177.12c-5.41,0-9.71-1.95-12.91-5.86-3.2-3.91-4.8-9.41-4.8-16.52,0-4.64.87-8.65,2.6-12.03,1.73-3.38,4.01-5.98,6.83-7.8,2.82-1.82,5.87-2.73,9.17-2.73,2.53,0,4.68.43,6.48,1.28s3.63,2.07,5.51,3.66l-.35-7.31v-16.48h7.31v62.74h-5.99l-.62-5.02h-.26c-1.65,1.64-3.58,3.07-5.82,4.27-2.23,1.2-4.61,1.81-7.14,1.81ZM581.39,171.04c2,0,3.88-.5,5.64-1.5s3.52-2.47,5.29-4.41v-22.38c-1.76-1.64-3.5-2.8-5.2-3.48-1.7-.67-3.44-1.01-5.2-1.01-2.29,0-4.36.69-6.21,2.07-1.85,1.38-3.33,3.29-4.45,5.73-1.12,2.44-1.67,5.3-1.67,8.59,0,5.11,1.03,9.12,3.08,12.03s4.96,4.36,8.72,4.36Z"/>
  </g>
</svg>