<?xml version="1.0" encoding="UTF-8"?>
<svg id="Ebene_1" xmlns="http://www.w3.org/2000/svg" version="1.1" viewBox="0 0 595 199.34">
  <!-- Generator: Adobe Illustrator 29.5.0, SVG Export Plug-In . SVG Version: 2.1.0 Build 137)  -->
  <defs>
    <style>
      .st0 {
        fill: #fff;
      }
    </style>
  </defs>
  <path class="st0" d="M56.05,152.05v-21.18h7.95c3.78-.23,7.66,1.35,7.66,5.48,0,2.32-1.61,3.93-3.73,4.64v.06c2.67.55,4.66,2.41,4.66,5.51,0,4.19-5.28,5.72-8.54,5.48h-8.01ZM64.15,139.38c1.91,0,2.96-.79,2.96-2.49s-1.06-2.5-2.96-2.5h-3.55v4.99h3.55ZM64.15,148.54c2.14,0,3.61-.38,3.61-2.82s-1.47-2.81-3.61-2.81h-3.55v5.63h3.55Z"/>
  <path class="st0" d="M80.54,145.87c0,1.91.26,3.69,2.52,3.69,1.52,0,2.29-.56,2.7-1.91h3.96c-.38,3.63-3.23,4.84-6.66,4.84-5.05,0-7.07-2.84-7.07-7.77,0-4.43,2.58-7.83,7.07-7.83,2.76,0,5.04.94,6.28,3.52.41.82.62,1.7.73,2.64.12.91.12,1.85.12,2.82h-9.65ZM85.65,142.93c0-1.61-.44-3.11-2.58-3.11-2.02,0-2.46,1.5-2.52,3.11h5.1Z"/>
  <path class="st0" d="M101.54,141.26c-.06-1-1-1.44-1.99-1.44-1.2,0-1.76.35-1.76,1.32,0,2.32,8.42,1,8.42,6.51,0,3.23-3.93,4.84-6.66,4.84-3.43,0-6.42-1.35-6.48-4.72h4.08c.09,1.14,1.11,1.79,2.4,1.79,1.2,0,2.11-.5,2.11-1.64s-2.11-1.67-2.99-1.88c-2.82-.67-5.43-1.29-5.43-4.72,0-3.08,3.73-4.43,6.31-4.43,3.11,0,5.75,1.12,5.95,4.37h-3.96Z"/>
  <path class="st0" d="M111.02,137.33v-2.9l4.4-1.59v4.49h3.31v2.93h-3.31v6.83c0,1.94.29,2.46,1.82,2.46.47,0,.94-.06,1.41-.09v2.58c-.5.23-2.85.44-3.46.44-3.43,0-4.17-1.79-4.17-4.99v-7.24h-2.96v-2.93h2.96Z"/>
  <path class="st0" d="M139.59,142.49c-.03-1.2-.53-2.67-2.23-2.67-1.88,0-1.91,3.52-1.97,4.66.12,1.35.15,5.08,2.03,5.08,1.7,0,2.2-1.67,2.23-2.88h4.28c-.15,3.76-2.46,5.81-6.51,5.81-4.37,0-6.57-3.9-6.57-7.8s2.2-7.8,6.57-7.8c3.75,0,6.54,2.14,6.51,5.6h-4.34Z"/>
  <path class="st0" d="M154.66,152.49c-4.81,0-7.68-3.16-7.68-7.8s2.87-7.8,7.68-7.8,7.68,3.17,7.68,7.8-2.87,7.8-7.68,7.8h0ZM154.66,149.56c2.7,0,3.14-2.52,3.14-4.87s-.44-4.87-3.14-4.87-3.14,2.52-3.14,4.87.44,4.87,3.14,4.87h0Z"/>
  <path class="st0" d="M171.06,139.03l.06.09c.91-1.35,2.29-2.23,4.52-2.23,1.46,0,4.31,1.09,4.84,3.23.23.91.29,1.85.29,2.35v9.59h-4.4v-8.86c-.03-1.59-.47-3.38-2.64-3.38-1.38,0-2.58,1.23-2.64,3.38v8.86h-4.4v-14.72h4.37v1.7h0Z"/>
  <path class="st0" d="M195.87,130.88h4.4v18.24c0,.97.09,1.97.15,2.93h-4.4c-.06-.7-.12-1.38-.12-2.08h-.06c-.97,1.73-2.61,2.52-4.52,2.52-4.31,0-6.33-4.02-6.33-7.8s2.32-7.8,6.89-7.8c1.53,0,3.11.91,3.93,2.14h.06v-8.15h0ZM192.7,149.56c2.38,0,3.16-2.85,3.16-4.87s-.79-4.87-3.16-4.87c-2.82,0-3.17,2.61-3.17,4.87s.35,4.87,3.17,4.87h0Z"/>
  <path class="st0" d="M204.61,134.66h4.69v-3.78h-4.69v3.78h0ZM204.76,152.05h4.4v-14.72h-4.4v14.72h0Z"/>
  <path class="st0" d="M215.17,137.33v-2.9l4.4-1.59v4.49h3.31v2.93h-3.31v6.83c0,1.94.29,2.46,1.82,2.46.47,0,.94-.06,1.41-.09v2.58c-.5.23-2.85.44-3.46.44-3.43,0-4.17-1.79-4.17-4.99v-7.24h-2.96v-2.93h2.96Z"/>
  <path class="st0" d="M226.46,130.88h4.69v3.78h-4.69v-3.78h0ZM226.61,137.33h4.4v14.72h-4.4v-14.72h0Z"/>
  <path class="st0" d="M243,152.49c-4.81,0-7.68-3.16-7.68-7.8s2.88-7.8,7.68-7.8,7.69,3.17,7.69,7.8-2.88,7.8-7.69,7.8h0ZM243,149.56c2.7,0,3.14-2.52,3.14-4.87s-.44-4.87-3.14-4.87-3.14,2.52-3.14,4.87.44,4.87,3.14,4.87h0Z"/>
  <path class="st0" d="M259.4,139.03l.06.09c.91-1.35,2.29-2.23,4.52-2.23,1.46,0,4.31,1.09,4.84,3.23.23.91.29,1.85.29,2.35v9.59h-4.4v-8.86c-.03-1.59-.47-3.38-2.64-3.38-1.38,0-2.58,1.23-2.64,3.38v8.86h-4.4v-14.72h4.37v1.7h0Z"/>
  <path class="st0" d="M281.48,141.26c-.06-1-1-1.44-1.99-1.44-1.2,0-1.76.35-1.76,1.32,0,2.32,8.42,1,8.42,6.51,0,3.23-3.93,4.84-6.66,4.84-3.43,0-6.42-1.35-6.48-4.72h4.08c.09,1.14,1.11,1.79,2.4,1.79,1.2,0,2.11-.5,2.11-1.64s-2.11-1.67-2.99-1.88c-2.82-.67-5.43-1.29-5.43-4.72,0-3.08,3.72-4.43,6.3-4.43,3.11,0,5.75,1.12,5.95,4.37h-3.96Z"/>
  <path class="st0" d="M306.91,133.37c-3.11-.35-3.16,1.06-3.05,3.96h2.67v2.93h-2.67v11.79h-4.4v-11.79h-2.2v-2.93h2.2c-.11-4.2.27-6.89,5.04-6.89.79,0,1.62.09,2.41.21v2.73h0Z"/>
  <path class="st0" d="M317.15,152.49c-4.81,0-7.69-3.16-7.69-7.8s2.87-7.8,7.69-7.8,7.68,3.17,7.68,7.8-2.88,7.8-7.68,7.8h0ZM317.15,149.56c2.7,0,3.13-2.52,3.13-4.87s-.44-4.87-3.13-4.87-3.14,2.52-3.14,4.87.44,4.87,3.14,4.87h0Z"/>
  <path class="st0" d="M332.81,137.33l.09,2.67h.06c.94-2.32,2.82-2.9,5.01-2.85v3.9h-1.91c-.73.06-1.7.47-2.14,1.08-.47.82-.56,1.64-.59,2.61v7.3h-4.37l-.03-11.79c0-.62-.09-1.85-.15-2.93h4.02Z"/>
  <polygon class="st0" points="360.76 137.33 365.07 137.33 357.68 157.66 353.31 157.66 355.19 152.09 349.5 137.33 354.19 137.33 357.42 147.51 357.48 147.51 360.76 137.33 360.76 137.33"/>
  <path class="st0" d="M375.51,152.49c-4.81,0-7.68-3.16-7.68-7.8s2.88-7.8,7.68-7.8,7.69,3.17,7.69,7.8-2.87,7.8-7.69,7.8h0ZM375.51,149.56c2.7,0,3.14-2.52,3.14-4.87s-.44-4.87-3.14-4.87-3.13,2.52-3.13,4.87.44,4.87,3.13,4.87h0Z"/>
  <path class="st0" d="M397.1,150.24c-.94,1.35-2.32,2.26-4.55,2.26-1.46,0-4.31-1.11-4.84-3.25-.24-.91-.29-1.85-.29-2.35v-9.56h4.4v8.83c.02,1.58.47,3.4,2.64,3.4,1.38,0,2.58-1.26,2.64-3.4v-8.83h4.4v12.08c.03.88.09,1.76.18,2.64h-4.4l-.18-1.82h0Z"/>
  <path class="st0" d="M410.24,137.33l.09,2.67h.06c.94-2.32,2.81-2.9,5.02-2.85v3.9h-1.91c-.73.06-1.7.47-2.14,1.08-.47.82-.55,1.64-.58,2.61v7.3h-4.37l-.03-11.79c0-.62-.09-1.85-.15-2.93h4.02Z"/>
  <path class="st0" d="M435.85,141.26c-.06-1-1-1.44-1.99-1.44-1.2,0-1.76.35-1.76,1.32,0,2.32,8.42,1,8.42,6.51,0,3.23-3.93,4.84-6.66,4.84-3.43,0-6.42-1.35-6.48-4.72h4.08c.09,1.14,1.11,1.79,2.41,1.79,1.2,0,2.11-.5,2.11-1.64s-2.11-1.67-2.99-1.88c-2.81-.67-5.43-1.29-5.43-4.72,0-3.08,3.73-4.43,6.31-4.43,3.11,0,5.75,1.12,5.95,4.37h-3.96Z"/>
  <path class="st0" d="M453.83,150.24c-.94,1.35-2.32,2.26-4.55,2.26-1.47,0-4.31-1.11-4.84-3.25-.24-.91-.29-1.85-.29-2.35v-9.56h4.4v8.83c.03,1.58.47,3.4,2.64,3.4,1.37,0,2.58-1.26,2.64-3.4v-8.83h4.4v12.08c.03.88.09,1.76.18,2.64h-4.4l-.17-1.82h0Z"/>
  <path class="st0" d="M471.11,142.49c-.03-1.2-.53-2.67-2.23-2.67-1.88,0-1.91,3.52-1.97,4.66.12,1.35.15,5.08,2.03,5.08,1.7,0,2.2-1.67,2.23-2.88h4.28c-.15,3.76-2.46,5.81-6.51,5.81-4.37,0-6.57-3.9-6.57-7.8s2.2-7.8,6.57-7.8c3.75,0,6.54,2.14,6.51,5.6h-4.34Z"/>
  <path class="st0" d="M486.91,142.49c-.03-1.2-.53-2.67-2.23-2.67-1.87,0-1.91,3.52-1.96,4.66.12,1.35.15,5.08,2.03,5.08,1.7,0,2.2-1.67,2.23-2.88h4.28c-.14,3.76-2.46,5.81-6.51,5.81-4.37,0-6.57-3.9-6.57-7.8s2.2-7.8,6.57-7.8c3.75,0,6.54,2.14,6.51,5.6h-4.34Z"/>
  <path class="st0" d="M498.79,145.87c0,1.91.26,3.69,2.52,3.69,1.53,0,2.29-.56,2.7-1.91h3.96c-.38,3.63-3.22,4.84-6.66,4.84-5.05,0-7.07-2.84-7.07-7.77,0-4.43,2.58-7.83,7.07-7.83,2.76,0,5.04.94,6.28,3.52.41.82.61,1.7.74,2.64.11.91.11,1.85.11,2.82h-9.64ZM503.89,142.93c0-1.61-.44-3.11-2.58-3.11-2.02,0-2.46,1.5-2.52,3.11h5.1Z"/>
  <path class="st0" d="M519.79,141.26c-.06-1-1-1.44-2-1.44-1.2,0-1.76.35-1.76,1.32,0,2.32,8.42,1,8.42,6.51,0,3.23-3.93,4.84-6.66,4.84-3.43,0-6.42-1.35-6.48-4.72h4.08c.09,1.14,1.12,1.79,2.41,1.79,1.2,0,2.11-.5,2.11-1.64s-2.11-1.67-2.99-1.88c-2.82-.67-5.43-1.29-5.43-4.72,0-3.08,3.72-4.43,6.3-4.43,3.11,0,5.75,1.12,5.95,4.37h-3.96Z"/>
  <path class="st0" d="M535.6,141.26c-.06-1-1-1.44-1.99-1.44-1.2,0-1.76.35-1.76,1.32,0,2.32,8.41,1,8.41,6.51,0,3.23-3.93,4.84-6.65,4.84-3.43,0-6.43-1.35-6.48-4.72h4.08c.09,1.14,1.11,1.79,2.41,1.79,1.2,0,2.11-.5,2.11-1.64s-2.11-1.67-2.99-1.88c-2.82-.67-5.43-1.29-5.43-4.72,0-3.08,3.72-4.43,6.31-4.43,3.11,0,5.75,1.12,5.95,4.37h-3.95Z"/>
  <path class="st0" d="M123.61,45.97h45.14c8.08,0,11.88,2.61,11.88,9.74v6.06c0,4.63-3.09,7.6-8.55,8.55,5.7.95,8.91,4.51,8.91,9.62v6.42c0,6.65-5.23,9.86-15.56,9.86h-41.81v-50.25h0ZM135.72,74.36v12.83h27.44c4.16,0,5.94-.83,5.94-4.51v-3.8c0-3.68-1.78-4.52-5.94-4.52h-27.44ZM135.72,54.17v11.88h27.44c3.68,0,5.47-.59,5.47-3.57v-4.75c0-2.97-1.66-3.56-5.47-3.56h-27.44Z"/>
  <polygon class="st0" points="201.68 45.97 213.92 45.97 213.92 96.22 201.68 96.22 201.68 45.97 201.68 45.97"/>
  <polygon class="st0" points="236.25 45.97 244.68 45.97 287.33 79.35 287.33 45.97 298.37 45.97 298.37 96.22 289.94 96.22 247.42 62.36 247.42 96.22 236.25 96.22 236.25 45.97 236.25 45.97"/>
  <path class="st0" d="M320.79,45.97h33.85c19.84,0,30.17,9.38,30.17,24.95,0,16.99-11.16,25.3-33.26,25.3h-30.77v-50.25h0ZM348.94,86.83c15.56,0,23.28-3.45,23.28-16.51,0-10.45-5.82-15.32-17.46-15.32h-21.62v31.83h15.8Z"/>
  <polygon class="st0" points="403.26 45.97 457.19 45.97 457.19 54.88 415.62 54.88 415.62 65.81 439.85 65.81 439.85 74.48 415.62 74.48 415.62 86.83 457.78 86.83 457.78 96.22 403.26 96.22 403.26 45.97 403.26 45.97"/>
  <path class="st0" d="M475.42,45.97h45.26c8.08,0,11.76,2.73,11.76,9.74v11.88c0,6.89-3.68,9.62-11.76,9.62h-6.9l23.88,19.01h-17.58l-21.03-19.01h-11.52v19.01h-12.11v-50.25h0ZM487.53,54.64v13.9h27.91c3.69,0,5.59-.71,5.59-4.04v-5.82c0-3.33-1.9-4.04-5.59-4.04h-27.91Z"/>
  <polygon class="st0" points="79.31 56.73 103.22 70.54 79.31 84.34 79.31 56.73 79.31 56.73"/>
  <polygon class="st0" points="56.73 37.54 80.64 51.34 56.73 65.15 56.73 37.54 56.73 37.54"/>
  <polygon class="st0" points="56.73 75.83 80.64 89.64 56.73 103.44 56.73 75.83 56.73 75.83"/>
</svg>